<svg width="17" height="16" viewBox="0 0 17 16" fill="none" xmlns="http://www.w3.org/2000/svg">
<g opacity="0.35">
<path d="M10.4695 5.17159L6.69819 8.94286C6.43784 9.20319 6.43784 9.62526 6.69819 9.88566C6.95854 10.146 7.38066 10.146 7.64099 9.88566L11.4123 6.1144C12.1933 5.33335 12.1933 4.06702 11.4123 3.28597C10.6312 2.50492 9.36486 2.50492 8.58379 3.28597L4.81257 7.05719C3.51082 8.35892 3.51082 10.4695 4.81257 11.7713C6.11432 13.073 8.22486 13.073 9.52659 11.7713L13.2979 7.99999L14.2407 8.94286L10.4695 12.7141C8.64699 14.5365 5.69221 14.5365 3.86976 12.7141C2.04732 10.8916 2.04732 7.93686 3.86976 6.1144L7.64099 2.34316C8.94273 1.04142 11.0533 1.04142 12.3551 2.34316C13.6568 3.64491 13.6568 5.75546 12.3551 7.05719L8.58379 10.8285C7.80279 11.6095 6.53643 11.6095 5.75538 10.8285C4.97433 10.0474 4.97433 8.78106 5.75538 7.99999L9.52659 4.22878L10.4695 5.17159Z" fill="black"/>
</g>
</svg>
