<svg width="17" height="16" viewBox="0 0 17 16" fill="none" xmlns="http://www.w3.org/2000/svg">
<g opacity="0.35">
<path d="M12.8262 10.3568L11.8833 9.41405L12.8262 8.47125C14.1279 7.16951 14.1279 5.05896 12.8262 3.75721C11.5244 2.45547 9.41387 2.45547 8.11213 3.75721L7.16932 4.70003L6.22651 3.75721L7.16932 2.81441C8.9918 0.991959 11.9465 0.991959 13.769 2.81441C15.5914 4.63685 15.5914 7.59165 13.769 9.41405L12.8262 10.3568ZM10.9405 12.2425L9.99773 13.1853C8.17533 15.0078 5.22053 15.0078 3.39808 13.1853C1.57564 11.3628 1.57564 8.40811 3.39808 6.58564L4.34089 5.64283L5.2837 6.58564L4.34089 7.52845C3.03915 8.83018 3.03915 10.9408 4.34089 12.2425C5.64264 13.5442 7.7532 13.5442 9.05493 12.2425L9.99773 11.2997L10.9405 12.2425ZM10.4691 5.17143L11.4119 6.11424L6.69791 10.8283L5.75511 9.88545L10.4691 5.17143Z" fill="black"/>
</g>
</svg>
