<svg width="201" height="54" viewBox="0 0 201 54" fill="none" xmlns="http://www.w3.org/2000/svg">
<g clip-path="url(#clip0_203_10)">
<path d="M49.8272 9.38043H40.5455L39.7091 12.8289H48.1201L56.4283 23.732L30.6761 48.2747L4.92814 23.732L13.232 12.8289H19.2669L22.2564 9.38043H11.5249L0.312988 24.0966L30.6761 53.0357L61.0391 24.0966L49.8272 9.38043Z" fill="#174483"/>
<path d="M35.4735 3.83936C35.7261 2.83218 34.4662 2.15495 33.7655 2.92129L19.2265 18.8229C18.6434 19.4606 19.0891 20.4878 19.9532 20.4976L27.7602 20.5863C28.411 20.5937 28.8815 21.2111 28.7159 21.8406L25.845 32.7565C25.5835 33.7509 26.8126 34.4451 27.5293 33.7078L43.3999 17.3782C44.016 16.7442 43.5668 15.6812 42.6828 15.6812H33.7851C33.1342 15.6812 32.6568 15.0693 32.8152 14.4379L35.4735 3.83936Z" fill="#C4FDC4"/>
<path fill-rule="evenodd" clip-rule="evenodd" d="M21.0875 19.0104L27.7772 19.0864C29.4044 19.1049 30.5805 20.6484 30.1666 22.2222L27.7796 31.2979L41.4996 17.1812H33.7851C32.1579 17.1812 30.9643 15.6514 31.3602 14.073L33.5371 5.3941L21.0875 19.0104ZM33.7655 2.92129C34.4662 2.15495 35.7261 2.83218 35.4735 3.83936L32.8152 14.4379C32.6568 15.0693 33.1342 15.6812 33.7851 15.6812H42.6828C43.5668 15.6812 44.016 16.7442 43.3999 17.3782L27.5293 33.7078C26.8126 34.4451 25.5835 33.7509 25.845 32.7565L28.7159 21.8406C28.8815 21.2111 28.411 20.5937 27.7602 20.5863L19.9532 20.4976C19.0891 20.4878 18.6434 19.4606 19.2265 18.8229L33.7655 2.92129Z" fill="#174483"/>
<path d="M78.895 11.1519H83.3172L87.0659 20.2921H87.2375L90.9862 11.1519H95.4083V25.9152H91.9298V16.8479H91.8097L88.2626 25.8208H86.0408L82.4936 16.8136H82.3735V25.9152H78.895V11.1519Z" fill="#174483"/>
<path d="M99.3929 13.5495C98.9158 13.5612 98.4533 13.3839 98.1062 13.0562C97.9386 12.907 97.8046 12.7239 97.7128 12.5192C97.6209 12.3144 97.5735 12.0925 97.5735 11.8681C97.5735 11.6437 97.6209 11.4219 97.7128 11.2171C97.8046 11.0124 97.9386 10.8293 98.1062 10.68C98.4574 10.3581 98.9165 10.1796 99.3929 10.1796C99.8694 10.1796 100.328 10.3581 100.68 10.68C100.846 10.8301 100.979 11.0133 101.07 11.218C101.161 11.4227 101.208 11.6441 101.208 11.8681C101.208 12.0921 101.161 12.3136 101.07 12.5183C100.979 12.723 100.846 12.9062 100.68 13.0562C100.333 13.3847 99.8703 13.5621 99.3929 13.5495ZM97.6258 25.9152V14.8405H101.152V25.9152H97.6258Z" fill="#174483"/>
<path d="M106.929 19.6015V25.9152H103.403V14.8405H106.753V16.8736H106.878C107.106 16.2175 107.547 15.6562 108.13 15.278C108.756 14.9088 109.468 14.7094 110.194 14.6996C110.921 14.6898 111.638 14.87 112.273 15.2223C112.849 15.5711 113.314 16.075 113.616 16.6763C113.947 17.3555 114.108 18.1044 114.088 18.8595V25.9152H110.545V19.5501C110.591 19.0325 110.438 18.5168 110.116 18.1089C109.951 17.9354 109.751 17.7992 109.529 17.7097C109.307 17.6202 109.068 17.5793 108.829 17.5899C108.489 17.5832 108.153 17.666 107.855 17.8301C107.575 17.9907 107.348 18.231 107.204 18.5207C107.029 18.8547 106.935 19.2248 106.929 19.6015Z" fill="#174483"/>
<path d="M122.529 14.8406V17.4141H115.542V14.8406H122.529ZM117.004 12.1898H120.53V22.4324C120.524 22.6129 120.56 22.7923 120.637 22.9557C120.701 23.0838 120.809 23.1843 120.942 23.2388C121.097 23.2968 121.261 23.3245 121.426 23.3203C121.57 23.3194 121.714 23.3065 121.855 23.2817C122.006 23.2559 122.121 23.2302 122.199 23.213L122.73 25.7565C122.562 25.8023 122.326 25.8623 122.023 25.9367C121.663 26.0171 121.297 26.063 120.929 26.0739C120.209 26.1267 119.485 26.0274 118.806 25.7822C118.25 25.5762 117.777 25.1935 117.459 24.6928C117.129 24.1269 116.971 23.477 117.004 22.8227V12.1898Z" fill="#174483"/>
<path d="M86.877 36.6896C86.8651 36.45 86.8018 36.2157 86.6916 36.0026C86.5813 35.7895 86.4266 35.6025 86.2379 35.4543C85.7641 35.1371 85.1983 34.9863 84.6295 35.0254C84.2371 35.0137 83.8459 35.0748 83.4757 35.2056C83.2024 35.3016 82.9616 35.4725 82.7809 35.6988C82.6276 35.9078 82.5449 36.1602 82.545 36.4194C82.5318 36.6226 82.578 36.8253 82.6779 37.0027C82.7881 37.1751 82.9345 37.3215 83.1068 37.4316C83.3204 37.5719 83.551 37.6843 83.7931 37.7662C84.0902 37.8708 84.394 37.9553 84.7024 38.0193L85.9892 38.3066C86.6556 38.4455 87.3044 38.6585 87.9236 38.9414C88.4429 39.1781 88.9208 39.4967 89.339 39.8851C89.7119 40.2492 90.0041 40.6876 90.1968 41.1718C90.4013 41.6803 90.5047 42.2237 90.5014 42.7717C90.52 43.6263 90.2727 44.4656 89.7937 45.1736C89.288 45.8697 88.5904 46.4032 87.7863 46.7091C86.7796 47.088 85.7091 47.2686 84.6338 47.241C83.5317 47.2645 82.4354 47.0767 81.404 46.6877C80.5347 46.3543 79.7869 45.765 79.2594 44.9978C78.7241 44.1412 78.4512 43.1467 78.4745 42.1369H81.9059C81.9177 42.5611 82.0501 42.9732 82.2876 43.325C82.5235 43.6501 82.8482 43.9003 83.2226 44.0456C83.6625 44.217 84.1318 44.3 84.6038 44.29C85.021 44.3003 85.4366 44.2349 85.8305 44.097C86.1363 43.9914 86.4076 43.8046 86.6154 43.5566C86.7946 43.3308 86.8927 43.0514 86.8942 42.7631C86.8962 42.5013 86.8049 42.2474 86.6368 42.0468C86.4219 41.8158 86.1561 41.6381 85.8605 41.5278C85.4299 41.3484 84.9851 41.2049 84.5308 41.0989L82.9867 40.7386C81.8825 40.5227 80.8502 40.0331 79.9843 39.3146C79.6156 38.9795 79.3259 38.5668 79.136 38.1062C78.9461 37.6456 78.8608 37.1486 78.8863 36.651C78.8642 35.7914 79.1232 34.9481 79.624 34.2491C80.1507 33.5369 80.8608 32.981 81.6785 32.6406C82.6285 32.2423 83.6511 32.0465 84.681 32.0659C85.7048 32.0415 86.7217 32.239 87.6619 32.6449C88.4572 32.9904 89.1383 33.554 89.6264 34.2705C90.1007 34.9892 90.3501 35.8329 90.3427 36.6939L86.877 36.6896Z" fill="#174483"/>
<path d="M99.4487 42.2484V35.9519H102.97V47.0265H99.6116V44.9677H99.4958C99.2649 45.6261 98.8251 46.1909 98.2434 46.5762C97.6065 46.99 96.8579 47.1981 96.0988 47.1724C95.4001 47.1876 94.7109 47.0079 94.1086 46.6534C93.5357 46.3042 93.0733 45.8002 92.7747 45.1993C92.4446 44.5182 92.28 43.7687 92.2943 43.0119V35.9519H95.82V42.3213C95.7953 42.8375 95.9652 43.3441 96.2961 43.741C96.4597 43.9162 96.6597 44.0534 96.882 44.143C97.1043 44.2327 97.3435 44.2726 97.5829 44.26C97.9141 44.2661 98.2411 44.1848 98.5308 44.0241C98.8164 43.8665 99.0502 43.6297 99.2042 43.3421C99.3755 43.0036 99.4595 42.6276 99.4487 42.2484Z" fill="#174483"/>
<path d="M105.213 51.1784V35.9519H108.7V37.8477H108.829C108.98 37.4999 109.181 37.1762 109.425 36.8869C109.708 36.5607 110.058 36.2989 110.45 36.1191C110.92 35.9069 111.432 35.8043 111.947 35.8189C112.704 35.8193 113.446 36.0286 114.092 36.4237C114.804 36.8738 115.369 37.5223 115.718 38.2895C116.166 39.3007 116.379 40.4008 116.34 41.5064C116.372 42.588 116.168 43.6637 115.743 44.6589C115.405 45.4338 114.849 46.0939 114.143 46.559C113.477 46.9813 112.702 47.2017 111.913 47.1938C111.416 47.2064 110.922 47.1128 110.463 46.9193C110.074 46.7533 109.723 46.5079 109.434 46.1987C109.169 45.9175 108.953 45.5942 108.795 45.2422H108.726V51.187L105.213 51.1784ZM108.666 41.4892C108.656 42.0181 108.737 42.5448 108.906 43.0462C109.039 43.4475 109.281 43.804 109.605 44.0756C109.924 44.3123 110.311 44.4402 110.708 44.4402C111.105 44.4402 111.491 44.3123 111.81 44.0756C112.132 43.8042 112.369 43.4473 112.496 43.0462C112.664 42.5446 112.744 42.0179 112.732 41.4892C112.744 40.9633 112.664 40.4394 112.496 39.9408C112.375 39.5463 112.144 39.194 111.832 38.9243C111.516 38.6789 111.125 38.5515 110.725 38.564C110.327 38.5519 109.936 38.6759 109.618 38.9157C109.297 39.1821 109.057 39.5326 108.924 39.9279C108.748 40.4295 108.661 40.9578 108.666 41.4892Z" fill="#174483"/>
<path d="M123.378 47.2367C122.335 47.2663 121.302 47.0301 120.376 46.5504C119.549 46.1033 118.876 45.4172 118.446 44.5817C117.973 43.6363 117.74 42.5889 117.768 41.5321C117.745 40.491 117.978 39.4601 118.446 38.5297C118.879 37.6934 119.543 36.9985 120.359 36.5266C121.245 36.0329 122.248 35.7855 123.262 35.8103C123.994 35.8016 124.72 35.9266 125.407 36.1792C126.052 36.4096 126.638 36.7802 127.123 37.2643C127.615 37.7681 127.995 38.3704 128.238 39.0315C128.516 39.8071 128.651 40.6267 128.637 41.4506V42.3084H119.012V40.2925H125.355C125.357 39.9417 125.265 39.5969 125.09 39.2931C124.919 39.0029 124.673 38.7643 124.378 38.6026C124.06 38.4317 123.704 38.346 123.344 38.3538C122.974 38.3492 122.609 38.4392 122.284 38.6154C121.977 38.7861 121.721 39.0344 121.54 39.3355C121.359 39.6367 121.261 39.98 121.255 40.3311V42.4157C121.244 42.8262 121.336 43.2329 121.521 43.5995C121.691 43.9303 121.953 44.2045 122.276 44.3887C122.634 44.5854 123.038 44.6832 123.447 44.6718C123.738 44.6763 124.028 44.6314 124.305 44.5388C124.548 44.46 124.772 44.3298 124.961 44.1571C125.15 43.9874 125.297 43.7759 125.39 43.5394L128.624 43.6338C128.509 44.3286 128.213 44.981 127.766 45.5253C127.282 46.0813 126.67 46.5099 125.982 46.7735C125.152 47.0963 124.268 47.2536 123.378 47.2367Z" fill="#174483"/>
<path d="M130.447 47.0265V35.9519H133.878V37.9721H133.994C134.139 37.3357 134.485 36.7628 134.98 36.3379C135.435 35.9824 135.998 35.7932 136.576 35.8018C136.744 35.8028 136.911 35.8143 137.078 35.8361C137.241 35.8547 137.403 35.8863 137.562 35.9304V38.9972C137.348 38.9283 137.126 38.8823 136.902 38.8599C136.661 38.8277 136.419 38.8105 136.177 38.8085C135.783 38.8035 135.395 38.8995 135.049 39.0873C134.72 39.2661 134.448 39.5336 134.264 39.8593C134.069 40.2119 133.971 40.6102 133.981 41.0131V47.018L130.447 47.0265Z" fill="#174483"/>
<path d="M145.75 35.9519V38.5511H138.763V35.9519H145.75ZM140.23 33.3011H143.756V43.5437C143.748 43.7238 143.783 43.9032 143.859 44.067C143.923 44.1951 144.031 44.2956 144.163 44.3501C144.318 44.4081 144.483 44.4358 144.648 44.4316C144.792 44.4307 144.935 44.4178 145.077 44.393C145.227 44.3672 145.343 44.3415 145.42 44.3243L145.952 46.8678C145.785 46.915 145.549 46.9793 145.244 47.048C144.885 47.1287 144.519 47.1746 144.15 47.1852C143.423 47.2439 142.691 47.1444 142.006 46.8935C141.45 46.6875 140.977 46.3048 140.659 45.8041C140.329 45.2385 140.172 44.5881 140.209 43.934L140.23 33.3011Z" fill="#174483"/>
<path d="M152.613 47.2367C151.57 47.2663 150.537 47.0301 149.611 46.5504C148.784 46.1033 148.111 45.4172 147.68 44.5817C147.207 43.6363 146.975 42.5889 147.003 41.5321C146.98 40.491 147.213 39.4601 147.68 38.5297C148.114 37.6934 148.778 36.9985 149.593 36.5266C150.48 36.0329 151.483 35.7855 152.497 35.8103C153.236 35.8003 153.97 35.9253 154.663 36.1792C155.3 36.413 155.879 36.7834 156.357 37.2643C156.85 37.7681 157.23 38.3704 157.473 39.0315C157.751 39.8071 157.886 40.6267 157.872 41.4506V42.3084H148.247V40.2925H154.59C154.591 39.9417 154.5 39.5969 154.324 39.2931C154.155 39.002 153.909 38.7631 153.612 38.6026C153.295 38.4317 152.939 38.346 152.579 38.3538C152.209 38.3492 151.844 38.4392 151.519 38.6154C151.212 38.7861 150.956 39.0344 150.775 39.3355C150.594 39.6367 150.496 39.98 150.49 40.3311V42.4157C150.479 42.8262 150.571 43.2329 150.756 43.5995C150.925 43.9303 151.188 44.2045 151.511 44.3887C151.869 44.5854 152.273 44.6832 152.682 44.6718C152.973 44.677 153.263 44.632 153.539 44.5388C153.783 44.46 154.007 44.3298 154.196 44.1571C154.385 43.9874 154.532 43.7759 154.625 43.5394L157.859 43.6338C157.737 44.3307 157.434 44.9833 156.979 45.5253C156.486 46.0949 155.858 46.5315 155.152 46.7949C154.342 47.1022 153.48 47.2521 152.613 47.2367Z" fill="#174483"/>
<path d="M162.8 47.2152C162.157 47.2264 161.519 47.1053 160.925 46.8592C160.399 46.635 159.951 46.2587 159.639 45.7784C159.305 45.2305 159.141 44.5963 159.167 43.9555C159.151 43.4185 159.261 42.8852 159.489 42.3985C159.697 41.9861 160.005 41.6322 160.385 41.3691C160.782 41.0875 161.224 40.8771 161.693 40.7472C162.211 40.6064 162.741 40.5145 163.276 40.4727C163.906 40.4126 164.413 40.3526 164.799 40.2882C165.102 40.2576 165.395 40.1609 165.656 40.0051C165.741 39.9478 165.81 39.8695 165.856 39.7778C165.902 39.6861 165.923 39.5842 165.918 39.4819V39.4604C165.927 39.2974 165.898 39.1344 165.831 38.9852C165.765 38.836 165.664 38.7048 165.536 38.6026C165.238 38.3862 164.875 38.2787 164.507 38.2981C164.11 38.2792 163.717 38.3857 163.383 38.6026C163.237 38.6998 163.111 38.8261 163.015 38.9737C162.92 39.1212 162.855 39.2869 162.826 39.4604L159.57 39.3446C159.654 38.6847 159.905 38.0572 160.299 37.5217C160.734 36.9666 161.306 36.5348 161.959 36.2693C162.765 35.9429 163.629 35.7866 164.498 35.8103C165.159 35.8035 165.817 35.8872 166.454 36.0591C167.015 36.2033 167.545 36.4474 168.02 36.7797C168.46 37.081 168.818 37.4876 169.062 37.9625C169.305 38.4373 169.426 38.9655 169.414 39.499V47.0265H166.094V45.4867H166.008C165.821 45.8482 165.567 46.17 165.258 46.4346C164.941 46.6998 164.575 46.8996 164.181 47.0222C163.733 47.1556 163.267 47.2207 162.8 47.2152ZM163.889 44.9077C164.246 44.9134 164.599 44.834 164.919 44.6761C165.213 44.5319 165.465 44.313 165.648 44.0413C165.834 43.7593 165.93 43.427 165.922 43.0891V42.0339C165.806 42.0936 165.684 42.1424 165.558 42.1798C165.416 42.2226 165.262 42.2613 165.095 42.2999C164.927 42.3385 164.751 42.3728 164.576 42.4028L164.065 42.48C163.77 42.5227 163.481 42.605 163.207 42.7245C162.996 42.8195 162.813 42.9672 162.675 43.1534C162.55 43.3375 162.485 43.5567 162.491 43.7796C162.478 43.944 162.507 44.1089 162.575 44.2589C162.644 44.4089 162.749 44.5392 162.881 44.6375C163.179 44.8341 163.533 44.9289 163.889 44.9077Z" fill="#174483"/>
<path d="M171.567 47.0265V35.9519H174.921V37.9849H175.045C175.253 37.3429 175.662 36.7849 176.212 36.3937C176.797 36.0101 177.481 35.8057 178.181 35.8057C178.88 35.8057 179.565 36.0101 180.15 36.3937C180.686 36.7695 181.058 37.3354 181.192 37.9764H181.316C181.522 37.3224 181.952 36.7619 182.53 36.3937C183.169 35.9859 183.917 35.7796 184.675 35.8018C185.15 35.7816 185.624 35.8604 186.067 36.0332C186.51 36.206 186.912 36.4689 187.248 36.8054C187.578 37.1823 187.83 37.6208 187.99 38.0956C188.15 38.5705 188.214 39.0722 188.179 39.5719V47.0265H184.653V40.3783C184.671 40.1461 184.642 39.9126 184.568 39.6917C184.495 39.4707 184.378 39.2667 184.224 39.0916C184.08 38.9483 183.907 38.8363 183.718 38.7625C183.528 38.6887 183.325 38.6547 183.122 38.6626C182.908 38.6524 182.695 38.6894 182.497 38.7709C182.299 38.8525 182.121 38.9766 181.977 39.1344C181.677 39.494 181.523 39.9535 181.548 40.4212V47.0308H178.159V40.344C178.181 39.8976 178.027 39.4606 177.73 39.1259C177.588 38.9805 177.415 38.8671 177.225 38.7931C177.035 38.7192 176.832 38.6864 176.628 38.697C176.341 38.6912 176.059 38.767 175.813 38.9157C175.594 39.0677 175.42 39.2769 175.311 39.5205C175.172 39.8182 175.103 40.144 175.11 40.4727V47.0265H171.567Z" fill="#174483"/>
<path d="M200.039 39.336L196.805 39.4218C196.771 39.1948 196.676 38.9812 196.53 38.8042C196.373 38.6164 196.173 38.4692 195.947 38.3753C195.686 38.2675 195.405 38.215 195.123 38.2208C194.76 38.21 194.401 38.2943 194.081 38.4653C193.953 38.5227 193.844 38.616 193.768 38.7341C193.692 38.8521 193.651 38.9897 193.652 39.1302C193.65 39.2375 193.673 39.3439 193.718 39.4413C193.763 39.5386 193.83 39.6244 193.914 39.692C194.202 39.8947 194.534 40.0256 194.883 40.0738L197.028 40.477C197.929 40.5988 198.781 40.9618 199.494 41.5278C199.763 41.7742 199.975 42.0758 200.116 42.4119C200.258 42.748 200.325 43.1106 200.313 43.4751C200.323 44.1947 200.085 44.8957 199.64 45.461C199.155 46.0402 198.529 46.4836 197.821 46.7477C196.978 47.0695 196.081 47.2267 195.179 47.211C193.601 47.211 192.352 46.885 191.443 46.233C191.007 45.9368 190.642 45.5486 190.372 45.0958C190.102 44.6431 189.935 44.1367 189.882 43.6123L193.365 43.5266C193.394 43.7134 193.462 43.8919 193.565 44.0507C193.668 44.2095 193.803 44.3451 193.961 44.4487C194.332 44.6751 194.762 44.7856 195.196 44.7661C195.58 44.7836 195.961 44.6961 196.298 44.5131C196.424 44.4509 196.53 44.3558 196.606 44.2379C196.681 44.1201 196.723 43.9839 196.727 43.844C196.726 43.7243 196.696 43.6068 196.638 43.5019C196.581 43.3971 196.498 43.3083 196.397 43.2435C196.084 43.0562 195.737 42.9336 195.376 42.8832L193.446 42.5186C192.524 42.4068 191.659 42.0145 190.967 41.3948C190.696 41.122 190.484 40.7958 190.345 40.437C190.207 40.0783 190.144 39.6946 190.161 39.3103C190.142 38.6368 190.351 37.9766 190.753 37.4359C191.197 36.8771 191.792 36.4573 192.468 36.2264C193.303 35.9272 194.185 35.7819 195.072 35.7975C196.567 35.7975 197.75 36.1106 198.619 36.7368C199.037 37.0338 199.383 37.4223 199.629 37.8726C199.875 38.323 200.015 38.8234 200.039 39.336Z" fill="#174483"/>
</g>
<defs>
<clipPath id="clip0_203_10">
<rect width="200" height="53.0357" fill="white" transform="translate(0.312988)"/>
</clipPath>
</defs>
</svg>
