<svg width="62" height="52" viewBox="0 0 62 52" fill="none" xmlns="http://www.w3.org/2000/svg">
<path d="M49.8272 7.38043H40.5455L39.7091 10.8289H48.1201L56.4283 21.732L30.6761 46.2747L4.92814 21.732L13.232 10.8289H19.2669L22.2564 7.38043H11.5249L0.312988 22.0966L30.6761 51.0357L61.0391 22.0966L49.8272 7.38043Z" fill="#174483"/>
<path d="M35.4734 1.83936C35.7261 0.832176 34.4661 0.154947 33.7655 0.921291L19.2265 16.8229C18.6434 17.4606 19.0891 18.4878 19.9531 18.4976L27.7601 18.5863C28.411 18.5937 28.8814 19.2111 28.7158 19.8406L25.845 30.7565C25.5834 31.7509 26.8126 32.4451 27.5292 31.7078L43.3998 15.3782C44.016 14.7442 43.5668 13.6812 42.6827 13.6812H33.7851C33.1342 13.6812 32.6567 13.0693 32.8151 12.4379L35.4734 1.83936Z" fill="#C4FDC4"/>
<path fill-rule="evenodd" clip-rule="evenodd" d="M21.0875 17.0104L27.7771 17.0864C29.4043 17.1049 30.5804 18.6484 30.1665 20.2222L27.7796 29.2979L41.4995 15.1812H33.7851C32.1578 15.1812 30.9643 13.6514 31.3602 12.073L33.537 3.3941L21.0875 17.0104ZM33.7655 0.921291C34.4661 0.154947 35.7261 0.832176 35.4734 1.83936L32.8151 12.4379C32.6567 13.0693 33.1342 13.6812 33.7851 13.6812H42.6827C43.5668 13.6812 44.016 14.7442 43.3998 15.3782L27.5292 31.7078C26.8126 32.4451 25.5834 31.7509 25.845 30.7565L28.7158 19.8406C28.8814 19.2111 28.411 18.5937 27.7601 18.5863L19.9531 18.4976C19.0891 18.4878 18.6434 17.4606 19.2265 16.8229L33.7655 0.921291Z" fill="#174483"/>
</svg>
