<svg width="48" height="48" viewBox="0 0 48 48" fill="none" xmlns="http://www.w3.org/2000/svg">
<g opacity="0.5">
<path d="M18.1217 24.4125L17.0342 23.325L24.0186 16.3594L31.0029 23.325L29.9061 24.4125L24.7873 19.2938V41.9625H23.2404V19.2938L18.1217 24.4125Z" fill="black"/>
<path d="M37.4344 17.2125C37.4344 17.1 37.4531 16.9875 37.4531 16.875C37.4531 10.8469 32.5031 5.96252 26.5031 5.96252C22.1813 5.96252 18.4594 8.50315 16.7156 12.1781C15.9563 11.7938 15.1125 11.5781 14.2031 11.5781C11.4281 11.5781 9.13125 13.7906 8.68125 16.4531C5.38125 17.5875 3 20.8313 3 24.5438C3 29.2031 6.75937 33 11.4 33H19.9688V31.5H11.475C7.64062 31.5 4.51875 28.3594 4.51875 24.5063C4.51875 21.525 6.4125 18.7688 9.225 17.7938L10.0125 17.5219L10.1531 16.6969C10.4906 14.6719 12.225 13.0125 14.2687 13.0125C14.9156 13.0125 15.5531 13.1625 16.1344 13.4625L17.4 14.1L18.0094 12.8156C19.5656 9.54377 22.8937 7.4344 26.4844 7.4344C31.6688 7.4344 35.9437 11.4938 35.9437 16.7063C35.9437 17.9531 35.925 18.6094 35.925 18.6094L37.35 18.6188C40.7812 18.6656 43.5 21.75 43.5 25.2094C43.5 28.6594 40.7062 31.4813 37.2656 31.5H36.9656H27.8438V33H37.3125C41.5312 33 45 29.5032 45 25.2375C45 20.9719 41.6719 17.2219 37.4344 17.2125Z" fill="black"/>
</g>
</svg>
