<svg width="67" height="56" viewBox="0 0 67 56" fill="none" xmlns="http://www.w3.org/2000/svg">
<path d="M54.1987 14.7075C54.1538 14.7075 54.1087 14.7075 54.06 14.7075C53.0775 6.43125 45.8737 0 37.5075 0C30.6675 0 24.465 4.2375 21.9788 10.5788C21.5325 10.53 21.0937 10.5075 20.6662 10.5075C15.21 10.5075 10.41 14.325 9.15 19.6275C3.9975 20.0925 0 24.4388 0 29.6475C0 35.1938 4.515 39.7125 10.065 39.7125H29.2913C29.9812 39.7125 30.54 39.1537 30.54 38.46C30.54 37.7662 29.9812 37.2075 29.2913 37.2075H10.0687C5.9025 37.2075 2.50875 33.8175 2.50875 29.6475C2.50875 25.485 5.8875 22.0912 10.035 22.0912L10.1962 22.095C10.8112 22.095 11.3438 21.6375 11.4375 21.0263C12.09 16.4588 16.0575 13.0125 20.67 13.0125C21.3113 13.0125 21.9488 13.08 22.59 13.2112L22.815 13.2338C23.3625 13.2338 23.8538 12.87 24.0037 12.36C25.89 6.46875 31.3162 2.505 37.5075 2.505C45.1275 2.505 51.3413 8.4825 51.66 16.1175C51.6825 16.4513 51.8363 16.7625 52.0988 16.9913C52.3463 17.2013 52.62 17.2575 53.0513 17.2838C53.49 17.235 53.8687 17.2087 54.2025 17.2087C59.715 17.2087 64.2 21.6938 64.2 27.2063C64.2 32.7188 59.715 37.2037 54.2025 37.2037H37.4212C36.7313 37.2037 36.1725 37.7625 36.1725 38.4562C36.1725 39.15 36.735 39.7087 37.4212 39.7087H54.2025C61.095 39.7087 66.705 34.1025 66.705 27.2063C66.705 20.31 61.0913 14.7075 54.1987 14.7075Z" fill="white"/>
<path d="M43.4812 34.0161C43.485 34.0161 43.485 34.0161 43.4812 34.0161C43.8225 34.0161 44.145 33.8849 44.37 33.6561C44.85 33.1686 44.85 32.3774 44.37 31.8861L34.2375 21.7536C33.7612 21.2811 32.9475 21.2849 32.4675 21.7649L22.3387 31.8861C22.1025 32.1224 21.975 32.4374 21.975 32.7711C21.975 33.1086 22.1062 33.4236 22.335 33.6486C22.56 33.8811 22.8825 34.0161 23.2162 34.0199C23.22 34.0199 23.2237 34.0199 23.2237 34.0199C23.5612 34.0199 23.8837 33.8886 24.1125 33.6561L32.1 25.6724V54.2661C32.1 54.9599 32.6625 55.5186 33.3487 55.5186C34.0425 55.5186 34.605 54.9599 34.605 54.2661V25.6724L42.585 33.6524C42.8175 33.8849 43.14 34.0161 43.4812 34.0161Z" fill="#BBFFBB"/>
</svg>
