<svg width="180" height="64" viewBox="0 0 180 64" fill="none" xmlns="http://www.w3.org/2000/svg">
<path fill-rule="evenodd" clip-rule="evenodd" d="M15.9924 18.6035C16.0753 17.7203 16.4397 16.883 17.0372 16.2182L18.6777 14.393H13.5882C6.08366 14.393 0 20.4767 0 27.9813V42.2067C0 44.567 0.603575 46.7926 1.66644 48.7312C3.63506 52.3219 6.8855 54.7127 9.96155 56.7293C10.6202 57.1611 11.2679 57.5746 11.9012 57.9789L11.9014 57.979C14.3611 59.5494 16.6037 60.9812 18.4298 62.8073C20.4794 64.8569 23.9839 63.4053 23.9839 60.5067V55.7949H43.4808C50.9854 55.7949 57.069 49.7112 57.069 42.2067V27.9813C57.069 20.5171 51.0508 14.4586 43.602 14.3936C43.4991 15.1021 43.2048 15.7732 42.7459 16.3321L40.8807 18.6035H43.4808C48.66 18.6035 52.8586 22.8021 52.8586 27.9813V42.2067C52.8586 47.3859 48.66 51.5845 43.4808 51.5845H22.3917C21.2655 51.5845 20.5702 52.3 20.2654 52.7599C19.9502 53.2357 19.7735 53.8132 19.7735 54.3858V58.3494C17.9384 56.8277 15.889 55.5228 13.9823 54.3087L13.9823 54.3087C13.3944 53.9344 12.8202 53.5687 12.2699 53.208C9.24097 51.2224 6.78618 49.3112 5.35841 46.707C4.62711 45.3732 4.21044 43.8417 4.21044 42.2067V27.9813C4.21044 22.8021 8.40903 18.6035 13.5882 18.6035H15.9924Z" fill="#164483"/>
<rect x="13.2739" y="30.9085" width="8.37104" height="8.37104" rx="4.18552" fill="#174483"/>
<rect x="35.4248" y="30.9085" width="8.37104" height="8.37104" rx="4.18552" fill="#174483"/>
<path d="M24.707 44.1823C26.0047 46.6758 30.5106 47.0551 32.3624 44.1823" stroke="#174483" stroke-width="3.44491" stroke-linecap="round"/>
<path d="M33.067 4.64195C33.3571 3.4854 31.9103 2.70774 31.1057 3.58774L19.1906 16.6195C18.5211 17.3518 19.0328 18.5313 20.025 18.5426L26.0981 18.6116C26.8455 18.6201 27.3857 19.3291 27.1956 20.0519L24.9625 28.5426C24.6622 29.6844 26.0736 30.4817 26.8965 29.635L39.9694 16.184C40.6769 15.4561 40.1611 14.2354 39.146 14.2354H32.1326C31.3852 14.2354 30.837 13.5327 31.0188 12.8078L33.067 4.64195Z" fill="#C4FDC4"/>
<path d="M69.1462 16.2773H74.1456L78.3865 26.6185H78.5822L82.8231 16.2773H87.8224V32.9799H83.8915V22.7202H83.7528L79.7403 32.8739H77.2284L73.2158 22.6631H73.0772V32.9799H69.1462V16.2773Z" fill="#164483"/>
<path d="M89.6515 32.9799V20.4529H93.6396V32.9799H89.6515ZM91.6496 18.9931C91.0896 18.9931 90.6084 18.8082 90.2061 18.4385C89.8037 18.0634 89.6026 17.6121 89.6026 17.0847C89.6026 16.5627 89.8037 16.1169 90.2061 15.7472C90.6084 15.372 91.0896 15.1845 91.6496 15.1845C92.215 15.1845 92.6962 15.372 93.0931 15.7472C93.4955 16.1169 93.6966 16.5627 93.6966 17.0847C93.6966 17.6121 93.4955 18.0634 93.0931 18.4385C92.6962 18.8082 92.215 18.9931 91.6496 18.9931Z" fill="#164483"/>
<path d="M99.4771 25.8356V32.9799H95.489V20.4529H99.2813V22.7528H99.42C99.6973 21.9862 100.17 21.3854 100.839 20.9504C101.508 20.51 102.304 20.2898 103.229 20.2898C104.109 20.2898 104.873 20.4883 105.52 20.8852C106.173 21.2767 106.678 21.8258 107.037 22.5326C107.402 23.234 107.581 24.055 107.576 24.9956V32.9799H103.587V25.7785C103.593 25.0826 103.416 24.5389 103.057 24.1474C102.704 23.7559 102.212 23.5602 101.581 23.5602C101.163 23.5602 100.793 23.6526 100.472 23.8375C100.157 24.0169 99.912 24.2752 99.738 24.6123C99.5695 24.9494 99.4825 25.3572 99.4771 25.8356Z" fill="#164483"/>
<path d="M116.426 20.4529V23.3889H108.524V20.4529H116.426ZM110.179 17.4517H114.167V29.0407C114.167 29.2854 114.205 29.4839 114.282 29.6361C114.363 29.7829 114.48 29.8889 114.632 29.9542C114.785 30.014 114.967 30.0439 115.179 30.0439C115.331 30.0439 115.491 30.0303 115.66 30.0031C115.834 29.9705 115.964 29.9433 116.051 29.9215L116.655 32.8005C116.465 32.8548 116.195 32.9228 115.847 33.0043C115.505 33.0859 115.094 33.1376 114.616 33.1593C113.681 33.2028 112.879 33.0941 112.21 32.8331C111.547 32.5667 111.038 32.1534 110.685 31.5934C110.337 31.0334 110.168 30.3293 110.179 29.4811V17.4517Z" fill="#164483"/>
<path d="M78.1744 41.9542C78.12 41.3562 77.8781 40.8913 77.4486 40.5596C77.0245 40.2226 76.4183 40.054 75.6299 40.054C75.1079 40.054 74.673 40.122 74.325 40.2579C73.977 40.3938 73.716 40.5814 73.5421 40.8206C73.3681 41.0544 73.2784 41.3236 73.2729 41.628C73.2621 41.8781 73.311 42.0983 73.4197 42.2886C73.5339 42.4789 73.697 42.6475 73.9091 42.7943C74.1265 42.9356 74.3875 43.0607 74.692 43.1694C74.9965 43.2782 75.339 43.3733 75.7196 43.4549L77.155 43.7811C77.9814 43.9605 78.71 44.1997 79.3407 44.4988C79.9768 44.7978 80.5096 45.1539 80.9391 45.5672C81.3741 45.9804 81.7031 46.4561 81.926 46.9944C82.1489 47.5326 82.2631 48.1362 82.2685 48.8049C82.2631 49.8597 81.9967 50.765 81.4693 51.5207C80.9419 52.2765 80.1834 52.8555 79.1939 53.2578C78.2098 53.6602 77.0218 53.8614 75.6299 53.8614C74.2326 53.8614 73.0147 53.652 71.9762 53.2334C70.9377 52.8147 70.1303 52.1786 69.554 51.325C68.9777 50.4714 68.6814 49.3921 68.665 48.0872H72.5308C72.5634 48.6255 72.7075 49.074 72.963 49.4329C73.2186 49.7917 73.5692 50.0636 74.0151 50.2484C74.4664 50.4333 74.9883 50.5257 75.5809 50.5257C76.1247 50.5257 76.5868 50.4523 76.9674 50.3055C77.3534 50.1587 77.6497 49.9548 77.8563 49.6939C78.063 49.4329 78.169 49.1339 78.1744 48.7968C78.169 48.4814 78.0711 48.2123 77.8808 47.9894C77.6905 47.761 77.3969 47.5653 77 47.4022C76.6086 47.2336 76.1083 47.0787 75.4994 46.9373L73.7541 46.5295C72.3079 46.1979 71.1688 45.6623 70.3369 44.9229C69.5051 44.178 69.0918 43.1721 69.0973 41.9053C69.0918 40.8723 69.3691 39.967 69.9292 39.1895C70.4892 38.412 71.2639 37.8058 72.2535 37.3708C73.243 36.9359 74.3712 36.7184 75.638 36.7184C76.9321 36.7184 78.0548 36.9386 79.0063 37.379C79.9632 37.8139 80.7054 38.4256 81.2327 39.214C81.7601 40.0024 82.0293 40.9158 82.0401 41.9542H78.1744Z" fill="#164483"/>
<path d="M91.7006 48.2422V41.1224H95.6805V53.6493H91.88V51.3168H91.7495C91.4722 52.0834 90.9992 52.6924 90.3304 53.1437C89.6671 53.5895 88.8652 53.8124 87.9245 53.8124C87.0709 53.8124 86.3206 53.6167 85.6736 53.2252C85.0266 52.8338 84.5237 52.2873 84.1648 51.586C83.806 50.8791 83.6238 50.0527 83.6184 49.1067V41.1224H87.6065V48.3237C87.6119 49.0034 87.7913 49.5389 88.1447 49.9304C88.4982 50.3218 88.9793 50.5176 89.5883 50.5176C89.9852 50.5176 90.3413 50.4306 90.6567 50.2566C90.9774 50.0772 91.2303 49.8189 91.4151 49.4818C91.6054 49.1393 91.7006 48.7261 91.7006 48.2422Z" fill="#164483"/>
<path d="M97.5299 58.3469V41.1224H101.477V43.2673H101.6C101.763 42.8867 101.994 42.5197 102.293 42.1663C102.597 41.8129 102.983 41.5247 103.451 41.3018C103.924 41.0734 104.489 40.9593 105.147 40.9593C106.017 40.9593 106.83 41.1876 107.586 41.6443C108.347 42.101 108.961 42.8051 109.429 43.7566C109.896 44.7081 110.13 45.9206 110.13 47.394C110.13 48.8131 109.905 50.0011 109.453 50.958C109.007 51.9149 108.404 52.6326 107.643 53.111C106.887 53.5895 106.047 53.8287 105.123 53.8287C104.492 53.8287 103.946 53.7254 103.483 53.5188C103.021 53.3122 102.633 53.0404 102.317 52.7033C102.007 52.3662 101.768 52.0046 101.6 51.6186H101.518V58.3469H97.5299ZM101.436 47.3858C101.436 48.06 101.526 48.6472 101.706 49.1474C101.89 49.6477 102.154 50.0364 102.497 50.3137C102.845 50.5855 103.261 50.7215 103.744 50.7215C104.234 50.7215 104.65 50.5855 104.992 50.3137C105.335 50.0364 105.593 49.6477 105.767 49.1474C105.946 48.6472 106.036 48.06 106.036 47.3858C106.036 46.7117 105.946 46.1272 105.767 45.6324C105.593 45.1376 105.335 44.7543 104.992 44.4825C104.655 44.2106 104.239 44.0747 103.744 44.0747C103.255 44.0747 102.839 44.2079 102.497 44.4743C102.154 44.7407 101.89 45.1213 101.706 45.6161C101.526 46.1109 101.436 46.7008 101.436 47.3858Z" fill="#164483"/>
<path d="M117.387 53.8858C116.076 53.8858 114.946 53.6276 113.994 53.111C113.048 52.5891 112.319 51.8469 111.808 50.8846C111.303 49.9168 111.05 48.7669 111.05 47.4348C111.05 46.1408 111.305 45.0099 111.817 44.0421C112.328 43.0688 113.048 42.3131 113.978 41.7748C114.908 41.2311 116.003 40.9593 117.264 40.9593C118.156 40.9593 118.972 41.0979 119.711 41.3752C120.451 41.6525 121.089 42.063 121.628 42.6067C122.166 43.1504 122.585 43.8219 122.884 44.6211C123.183 45.4149 123.332 46.3256 123.332 47.3532V48.3482H112.445V46.032H119.621C119.616 45.6079 119.515 45.2301 119.32 44.8984C119.124 44.5667 118.855 44.3085 118.512 44.1236C118.175 43.9333 117.786 43.8382 117.346 43.8382C116.9 43.8382 116.501 43.9388 116.147 44.1399C115.794 44.3357 115.514 44.6048 115.307 44.9473C115.101 45.2844 114.992 45.6677 114.981 46.0973V48.4542C114.981 48.9653 115.082 49.4139 115.283 49.7999C115.484 50.1805 115.769 50.4768 116.139 50.6888C116.509 50.9009 116.949 51.0069 117.46 51.0069C117.814 51.0069 118.134 50.958 118.423 50.8601C118.711 50.7622 118.958 50.6182 119.165 50.4279C119.371 50.2376 119.526 50.0038 119.63 49.7265L123.291 49.8325C123.139 50.6535 122.805 51.3685 122.288 51.9774C121.777 52.5809 121.106 53.0512 120.274 53.3883C119.442 53.72 118.48 53.8858 117.387 53.8858Z" fill="#164483"/>
<path d="M124.68 53.6493V41.1224H128.554V43.4059H128.684C128.913 42.5795 129.285 41.9651 129.802 41.5628C130.318 41.155 130.919 40.9511 131.604 40.9511C131.789 40.9511 131.979 40.9647 132.175 40.9919C132.371 41.0136 132.553 41.049 132.721 41.0979V44.564C132.531 44.4988 132.281 44.4471 131.971 44.4091C131.667 44.371 131.395 44.352 131.156 44.352C130.683 44.352 130.256 44.458 129.875 44.67C129.5 44.8767 129.204 45.1675 128.986 45.5427C128.774 45.9124 128.668 46.3474 128.668 46.8476V53.6493H124.68Z" fill="#164483"/>
<path d="M138.855 53.8858C137.533 53.8858 136.4 53.614 135.454 53.0703C134.513 52.5266 133.79 51.7708 133.284 50.803C132.779 49.8298 132.526 48.7043 132.526 47.4266C132.526 46.1435 132.779 45.018 133.284 44.0502C133.795 43.077 134.521 42.3185 135.462 41.7748C136.408 41.2311 137.536 40.9593 138.846 40.9593C140.005 40.9593 141.013 41.1686 141.872 41.5872C142.737 42.0059 143.411 42.5985 143.895 43.3652C144.384 44.1263 144.642 45.0207 144.67 46.0483H140.942C140.866 45.4068 140.649 44.9038 140.29 44.5396C139.937 44.1753 139.474 43.9931 138.904 43.9931C138.441 43.9931 138.036 44.1236 137.688 44.3846C137.34 44.6401 137.069 45.0207 136.873 45.5264C136.683 46.0266 136.587 46.6464 136.587 47.3858C136.587 48.1253 136.683 48.7505 136.873 49.2616C137.069 49.7673 137.34 50.1506 137.688 50.4116C138.036 50.6671 138.441 50.7949 138.904 50.7949C139.273 50.7949 139.599 50.716 139.882 50.5584C140.17 50.4007 140.407 50.1696 140.592 49.8651C140.777 49.5552 140.893 49.1801 140.942 48.7397H144.67C144.631 49.7727 144.373 50.6753 143.895 51.4473C143.422 52.2194 142.756 52.8202 141.897 53.2497C141.043 53.6738 140.029 53.8858 138.855 53.8858Z" fill="#164483"/>
<path d="M150.01 46.505V53.6493H146.021V36.9467H149.879V43.4222H150.018C150.3 42.6502 150.763 42.0467 151.404 41.6117C152.051 41.1768 152.842 40.9593 153.777 40.9593C154.658 40.9593 155.425 41.155 156.077 41.5465C156.73 41.9325 157.235 42.4789 157.594 43.1857C157.958 43.8926 158.138 44.719 158.132 45.665V53.6493H154.144V46.448C154.15 45.752 153.976 45.2083 153.622 44.8168C153.269 44.4254 152.772 44.2296 152.13 44.2296C151.711 44.2296 151.342 44.3221 151.021 44.5069C150.705 44.6864 150.458 44.9446 150.279 45.2817C150.105 45.6188 150.015 46.0266 150.01 46.505Z" fill="#164483"/>
<path d="M163.464 53.8614C162.665 53.8614 161.956 53.7282 161.336 53.4617C160.721 53.1899 160.235 52.7821 159.876 52.2384C159.522 51.6893 159.346 51.0015 159.346 50.175C159.346 49.4791 159.468 48.8919 159.713 48.4134C159.957 47.935 160.295 47.5462 160.724 47.2472C161.154 46.9482 161.648 46.7225 162.208 46.5703C162.768 46.4126 163.366 46.3066 164.003 46.2522C164.715 46.187 165.288 46.119 165.723 46.0483C166.158 45.9722 166.474 45.8662 166.669 45.7303C166.871 45.5889 166.971 45.3905 166.971 45.1349V45.0941C166.971 44.6755 166.827 44.352 166.539 44.1236C166.251 43.8953 165.862 43.7811 165.373 43.7811C164.845 43.7811 164.421 43.8953 164.1 44.1236C163.78 44.352 163.576 44.6673 163.489 45.0697L159.811 44.9392C159.919 44.178 160.199 43.4984 160.651 42.9003C161.107 42.2968 161.733 41.8238 162.526 41.4812C163.326 41.1333 164.285 40.9593 165.405 40.9593C166.205 40.9593 166.941 41.0544 167.615 41.2447C168.29 41.4296 168.877 41.7014 169.377 42.0603C169.877 42.4137 170.263 42.8486 170.535 43.3652C170.812 43.8817 170.951 44.4716 170.951 45.1349V53.6493H167.2V51.904H167.102C166.879 52.3281 166.593 52.687 166.245 52.9806C165.903 53.2742 165.498 53.4944 165.03 53.6412C164.568 53.788 164.046 53.8614 163.464 53.8614ZM164.696 51.2516C165.125 51.2516 165.511 51.1646 165.854 50.9906C166.202 50.8166 166.479 50.5774 166.686 50.2729C166.892 49.963 166.996 49.6042 166.996 49.1964V48.0057C166.881 48.0655 166.743 48.1198 166.58 48.1688C166.422 48.2177 166.248 48.2639 166.058 48.3074C165.867 48.3509 165.672 48.389 165.471 48.4216C165.269 48.4542 165.076 48.4841 164.892 48.5113C164.516 48.5711 164.196 48.6636 163.929 48.7886C163.668 48.9137 163.467 49.0768 163.326 49.2779C163.19 49.4737 163.122 49.7075 163.122 49.9793C163.122 50.3925 163.269 50.7079 163.562 50.9254C163.861 51.1428 164.239 51.2516 164.696 51.2516Z" fill="#164483"/>
<path d="M179.772 41.1224V44.0584H171.869V41.1224H179.772ZM173.524 38.1211H177.512V49.7102C177.512 49.9548 177.55 50.1533 177.627 50.3055C177.708 50.4523 177.825 50.5584 177.977 50.6236C178.13 50.6834 178.312 50.7133 178.524 50.7133C178.676 50.7133 178.836 50.6997 179.005 50.6725C179.179 50.6399 179.309 50.6127 179.396 50.591L180 53.4699C179.81 53.5243 179.54 53.5922 179.192 53.6738C178.85 53.7553 178.439 53.807 177.961 53.8287C177.026 53.8722 176.224 53.7635 175.555 53.5025C174.892 53.2361 174.383 52.8229 174.03 52.2629C173.682 51.7029 173.513 50.9988 173.524 50.1506V38.1211Z" fill="#164483"/>
</svg>
