<svg width="18" height="18" viewBox="0 0 18 18" fill="none" xmlns="http://www.w3.org/2000/svg">
<path d="M9 0.457031C4.28203 0.457031 0.457031 4.28203 0.457031 9C0.457031 10.7262 0.970313 12.3363 1.85273 13.6793L0.752344 17.4059L4.62305 16.3336C5.90273 17.1 7.40039 17.5395 9 17.5395C13.718 17.5395 17.543 13.7145 17.543 8.99648C17.543 4.28203 13.718 0.457031 9 0.457031Z" fill="white"/>
<path d="M13.6934 11.3449C13.6828 11.2324 13.616 11.134 13.5141 11.0883C12.825 10.7719 12.1324 10.4555 11.4434 10.1391C11.366 10.1039 11.2711 10.1215 11.2148 10.1883L10.2797 11.243C10.2059 11.3274 10.0898 11.3555 9.98789 11.3133C9.50274 11.1129 8.84883 10.7754 8.18789 10.2059C7.39688 9.52736 6.93281 8.79962 6.67266 8.32501C6.80274 8.23712 7.15781 7.97345 7.31602 7.48478C7.31602 7.48126 7.31953 7.47775 7.31953 7.47775C7.41797 7.1754 7.39688 6.84845 7.28789 6.54962C7.10156 6.05392 6.72891 5.09415 6.58477 4.9465C6.56016 4.92189 6.53203 4.89728 6.53203 4.89728C6.42656 4.80236 6.28945 4.74962 6.14531 4.74259C6.0961 4.73907 6.04336 4.73907 5.98711 4.73907C5.82539 4.73556 5.68125 4.73556 5.57578 4.74962C5.27695 4.79181 5.05899 4.9922 4.92188 5.16095C4.75664 5.36134 4.55977 5.66017 4.42969 6.05392C4.41914 6.08907 4.4086 6.12072 4.39805 6.15587C4.25391 6.65509 4.28203 7.18947 4.4543 7.68165C4.61602 8.1422 4.85156 8.69064 5.20664 9.27072C5.80781 10.2586 6.46172 10.8703 6.90469 11.2746C7.40391 11.7352 8.02266 12.3012 9.00352 12.7723C9.91055 13.2082 10.7332 13.3699 11.2852 13.4367C11.5102 13.4578 11.925 13.4613 12.3996 13.282C12.6176 13.1977 12.8004 13.0957 12.948 12.9867C13.3383 12.709 13.6125 12.2906 13.6828 11.8195C13.6828 11.816 13.6828 11.8125 13.6828 11.809C13.7074 11.6297 13.7039 11.475 13.6934 11.3449Z" fill="#25D366"/>
</svg>
