<svg width="18" height="16" viewBox="0 0 18 16" fill="none" xmlns="http://www.w3.org/2000/svg">
<path d="M10.125 1.5C10.125 1.83319 9.98018 2.13254 9.75 2.33854V3.75H13.5C14.7427 3.75 15.75 4.75736 15.75 6V13.5C15.75 14.7427 14.7427 15.75 13.5 15.75H4.5C3.25736 15.75 2.25 14.7427 2.25 13.5V6C2.25 4.75736 3.25736 3.75 4.5 3.75H8.25V2.33854C8.01982 2.13254 7.875 1.83319 7.875 1.5C7.875 0.878677 8.3787 0.375 9 0.375C9.6213 0.375 10.125 0.878677 10.125 1.5ZM4.5 5.25C4.08579 5.25 3.75 5.58579 3.75 6V13.5C3.75 13.9142 4.08579 14.25 4.5 14.25H13.5C13.9142 14.25 14.25 13.9142 14.25 13.5V6C14.25 5.58579 13.9142 5.25 13.5 5.25H9.75H8.25H4.5ZM1.5 7.5H0V12H1.5V7.5ZM16.5 7.5H18V12H16.5V7.5ZM6.75 10.875C7.37132 10.875 7.875 10.3713 7.875 9.75C7.875 9.1287 7.37132 8.625 6.75 8.625C6.12868 8.625 5.625 9.1287 5.625 9.75C5.625 10.3713 6.12868 10.875 6.75 10.875ZM11.25 10.875C11.8713 10.875 12.375 10.3713 12.375 9.75C12.375 9.1287 11.8713 8.625 11.25 8.625C10.6287 8.625 10.125 9.1287 10.125 9.75C10.125 10.3713 10.6287 10.875 11.25 10.875Z" fill="black"/>
</svg>
