<svg width="15" height="15" viewBox="0 0 15 15" fill="none" xmlns="http://www.w3.org/2000/svg">
<path d="M6.54668 7.24642L11.1783 2.61475L12.4158 3.85218L11.5909 4.67714L12.8283 5.91458L10.7659 7.97698L9.52845 6.73956L7.78411 8.48384C8.35805 9.58343 8.18328 10.9721 7.25981 11.8955C6.12079 13.0345 4.27407 13.0345 3.13504 11.8955C1.996 10.7565 1.996 8.90974 3.13504 7.77072C4.0585 6.84724 5.44715 6.67248 6.54668 7.24642ZM6.02239 10.6581C6.47802 10.2025 6.47802 9.46378 6.02239 9.00814C5.56677 8.55256 4.82809 8.55256 4.37247 9.00814C3.91686 9.46378 3.91686 10.2025 4.37247 10.6581C4.82809 11.1137 5.56677 11.1137 6.02239 10.6581Z" fill="#174483"/>
</svg>
