<svg width="58" height="61" viewBox="0 0 58 61" fill="none" xmlns="http://www.w3.org/2000/svg">
<path fill-rule="evenodd" clip-rule="evenodd" d="M15.9924 15.6035C16.0753 14.7203 16.4397 13.883 17.0372 13.2182L18.6777 11.3931H13.5882C6.08366 11.3931 0 17.4767 0 24.9813V39.2067C0 41.567 0.603575 43.7926 1.66644 45.7312C3.63506 49.3219 6.8855 51.7128 9.96155 53.7293C10.6202 54.1611 11.2679 54.5746 11.9012 54.9789L11.9014 54.979C14.3611 56.5494 16.6037 57.9812 18.4298 59.8074C20.4794 61.857 23.9839 60.4053 23.9839 57.5068V52.7949H43.4808C50.9854 52.7949 57.069 46.7113 57.069 39.2067V24.9813C57.069 17.5172 51.0508 11.4587 43.602 11.3936C43.4991 12.1022 43.2048 12.7733 42.7459 13.3321L40.8807 15.6035H43.4808C48.66 15.6035 52.8586 19.8021 52.8586 24.9813V39.2067C52.8586 44.3859 48.66 48.5845 43.4808 48.5845H22.3917C21.2655 48.5845 20.5702 49.3 20.2654 49.7599C19.9502 50.2357 19.7735 50.8133 19.7735 51.3858V55.3494C17.9384 53.8278 15.889 52.5228 13.9823 51.3088L13.9823 51.3087C13.3944 50.9344 12.8202 50.5688 12.2699 50.208C9.24097 48.2224 6.78618 46.3113 5.35841 43.7071C4.62711 42.3732 4.21044 40.8418 4.21044 39.2067V24.9813C4.21044 19.8021 8.40903 15.6035 13.5882 15.6035H15.9924Z" fill="#164483"/>
<rect x="13.2739" y="27.9084" width="8.37104" height="8.37104" rx="4.18552" fill="#174483"/>
<rect x="35.4248" y="27.9084" width="8.37104" height="8.37104" rx="4.18552" fill="#174483"/>
<path d="M24.707 41.1821C26.0047 43.6756 30.5106 44.0549 32.3624 41.1821" stroke="#174483" stroke-width="3.44491" stroke-linecap="round"/>
<path d="M33.067 1.64189C33.3571 0.485343 31.9103 -0.292317 31.1057 0.587677L19.1906 13.6195C18.5211 14.3518 19.0328 15.5313 20.025 15.5426L26.0981 15.6116C26.8455 15.6201 27.3857 16.329 27.1956 17.0519L24.9625 25.5425C24.6622 26.6844 26.0736 27.4816 26.8965 26.6349L39.9694 13.184C40.6769 12.456 40.1611 11.2354 39.146 11.2354H32.1326C31.3852 11.2354 30.837 10.5327 31.0188 9.8077L33.067 1.64189Z" fill="#C4FDC4"/>
</svg>
