<svg width="14" height="15" viewBox="0 0 14 15" fill="none" xmlns="http://www.w3.org/2000/svg">
<path d="M11.6668 13.3333H10.5002V12.1667C10.5002 11.2001 9.71669 10.4167 8.75016 10.4167H5.25016C4.28367 10.4167 3.50016 11.2001 3.50016 12.1667V13.3333H2.3335V12.1667C2.3335 10.5558 3.63933 9.25 5.25016 9.25H8.75016C10.361 9.25 11.6668 10.5558 11.6668 12.1667V13.3333ZM7.00016 8.08333C5.06717 8.08333 3.50016 6.51632 3.50016 4.58333C3.50016 2.65033 5.06717 1.08333 7.00016 1.08333C8.93315 1.08333 10.5002 2.65033 10.5002 4.58333C10.5002 6.51632 8.93315 8.08333 7.00016 8.08333ZM7.00016 6.91667C8.2888 6.91667 9.3335 5.872 9.3335 4.58333C9.3335 3.29467 8.2888 2.25 7.00016 2.25C5.7115 2.25 4.66683 3.29467 4.66683 4.58333C4.66683 5.872 5.7115 6.91667 7.00016 6.91667Z" fill="#174483"/>
</svg>
